<svg width="65" height="64" viewBox="0 0 65 64" fill="none" xmlns="http://www.w3.org/2000/svg">
<circle cx="32.5" cy="32" r="32" fill="url(#paint0_linear_46922_3949)"/>
<path d="M13.8334 43.1417C15.8638 46.3884 18.7028 49.052 22.0724 50.8714C25.4419 52.6908 29.2263 53.6036 33.0547 53.5204C36.8832 53.6064 40.6684 52.6963 44.0393 50.8792C47.4103 49.0621 50.2513 46.4005 52.284 43.155C52.1845 40.3515 49.9312 37.9977 45.524 36.0937C41.6062 34.3005 37.3625 33.3294 33.0547 33.2404C28.7545 33.3256 24.5149 34.2704 20.5854 36.019C16.1783 37.8626 13.9276 40.2368 13.8334 43.1417ZM39.8147 10.8537C38.9425 9.94168 37.8927 9.21799 36.7301 8.72725C35.5674 8.23652 34.3166 7.98914 33.0547 8.00037C31.7928 7.98914 30.542 8.23652 29.3793 8.72725C28.2167 9.21799 27.1669 9.94168 26.2947 10.8537C25.3827 11.7259 24.659 12.7757 24.1683 13.9383C23.6775 15.101 23.4301 16.3518 23.4414 17.6137C23.4301 18.8756 23.6775 20.1264 24.1683 21.2891C24.659 22.4517 25.3827 23.5015 26.2947 24.3737C27.1669 25.2857 28.2167 26.0094 29.3793 26.5001C30.542 26.9909 31.7928 27.2383 33.0547 27.227C34.3166 27.2383 35.5674 26.9909 36.7301 26.5001C37.8927 26.0094 38.9425 25.2857 39.8147 24.3737C40.7267 23.5015 41.4504 22.4517 41.9412 21.2891C42.4319 20.1264 42.6793 18.8756 42.668 17.6137C42.6793 16.3518 42.4319 15.101 41.9412 13.9383C41.4504 12.7757 40.7267 11.7259 39.8147 10.8537Z" fill="white"/>
<defs>
<linearGradient id="paint0_linear_46922_3949" x1="32.5" y1="0" x2="32.5" y2="64" gradientUnits="userSpaceOnUse">
<stop stop-color="#694ED6"/>
<stop offset="1" stop-color="#C137A2"/>
</linearGradient>
</defs>
</svg>
