<svg width="25" height="24" viewBox="0 0 25 24" fill="none" xmlns="http://www.w3.org/2000/svg">
<path d="M17.5 16.62C18.1186 16.62 18.62 16.1186 18.62 15.5C18.62 14.8814 18.1186 14.38 17.5 14.38C16.8814 14.38 16.38 14.8814 16.38 15.5C16.38 16.1186 16.8814 16.62 17.5 16.62Z" fill="black" fill-opacity="0.54"/>
<path fill-rule="evenodd" clip-rule="evenodd" d="M17.5 17.5C16.77 17.5 15.31 17.86 15.26 18.58C15.76 19.29 16.58 19.75 17.5 19.75C18.42 19.75 19.24 19.29 19.74 18.58C19.69 17.86 18.23 17.5 17.5 17.5Z" fill="black" fill-opacity="0.54"/>
<path fill-rule="evenodd" clip-rule="evenodd" d="M18.5 11.09V6.27L11 3L3.5 6.27V11.18C3.5 15.72 6.7 19.97 11 21C11.55 20.87 12.08 20.68 12.6 20.45C13.68 21.99 15.47 23 17.5 23C20.81 23 23.5 20.31 23.5 17C23.5 14.03 21.34 11.57 18.5 11.09ZM11.5 17C11.5 17.56 11.58 18.11 11.73 18.62C11.49 18.73 11.25 18.84 11 18.92C7.83 17.92 5.5 14.68 5.5 11.18V7.58L11 5.18L16.5 7.58V11.09C13.66 11.57 11.5 14.03 11.5 17ZM17.5 21C15.29 21 13.5 19.21 13.5 17C13.5 14.79 15.29 13 17.5 13C19.71 13 21.5 14.79 21.5 17C21.5 19.21 19.71 21 17.5 21Z" fill="black" fill-opacity="0.54"/>
</svg>
