<svg width="19" height="18" viewBox="0 0 19 18" fill="none" xmlns="http://www.w3.org/2000/svg">
<path d="M15.0725 9.735C15.1025 9.495 15.125 9.255 15.125 9C15.125 8.745 15.1025 8.505 15.0725 8.265L16.655 7.0275C16.7975 6.915 16.835 6.7125 16.745 6.5475L15.245 3.9525C15.1775 3.8325 15.05 3.765 14.915 3.765C14.87 3.765 14.825 3.7725 14.7875 3.7875L12.92 4.5375C12.53 4.2375 12.11 3.99 11.6525 3.8025L11.3675 1.815C11.345 1.635 11.1875 1.5 11 1.5H8C7.8125 1.5 7.655 1.635 7.6325 1.815L7.3475 3.8025C6.89 3.99 6.47 4.245 6.08 4.5375L4.2125 3.7875C4.1675 3.7725 4.1225 3.765 4.0775 3.765C3.95 3.765 3.8225 3.8325 3.755 3.9525L2.255 6.5475C2.1575 6.7125 2.2025 6.915 2.345 7.0275L3.9275 8.265C3.8975 8.505 3.875 8.7525 3.875 9C3.875 9.2475 3.8975 9.495 3.9275 9.735L2.345 10.9725C2.2025 11.085 2.165 11.2875 2.255 11.4525L3.755 14.0475C3.8225 14.1675 3.95 14.235 4.085 14.235C4.13 14.235 4.175 14.2275 4.2125 14.2125L6.08 13.4625C6.47 13.7625 6.89 14.01 7.3475 14.1975L7.6325 16.185C7.655 16.365 7.8125 16.5 8 16.5H11C11.1875 16.5 11.345 16.365 11.3675 16.185L11.6525 14.1975C12.11 14.01 12.53 13.755 12.92 13.4625L14.7875 14.2125C14.8325 14.2275 14.8775 14.235 14.9225 14.235C15.05 14.235 15.1775 14.1675 15.245 14.0475L16.745 11.4525C16.835 11.2875 16.7975 11.085 16.655 10.9725L15.0725 9.735V9.735ZM13.5875 8.4525C13.6175 8.685 13.625 8.8425 13.625 9C13.625 9.1575 13.61 9.3225 13.5875 9.5475L13.4825 10.395L14.15 10.92L14.96 11.55L14.435 12.4575L13.4825 12.075L12.7025 11.76L12.0275 12.27C11.705 12.51 11.3975 12.69 11.09 12.8175L10.295 13.14L10.175 13.9875L10.025 15H8.975L8.8325 13.9875L8.7125 13.14L7.9175 12.8175C7.595 12.6825 7.295 12.51 6.995 12.285L6.3125 11.76L5.5175 12.0825L4.565 12.465L4.04 11.5575L4.85 10.9275L5.5175 10.4025L5.4125 9.555C5.39 9.3225 5.375 9.15 5.375 9C5.375 8.85 5.39 8.6775 5.4125 8.4525L5.5175 7.605L4.85 7.08L4.04 6.45L4.565 5.5425L5.5175 5.925L6.2975 6.24L6.9725 5.73C7.295 5.49 7.6025 5.31 7.91 5.1825L8.705 4.86L8.825 4.0125L8.975 3H10.0175L10.16 4.0125L10.28 4.86L11.075 5.1825C11.3975 5.3175 11.6975 5.49 11.9975 5.715L12.68 6.24L13.475 5.9175L14.4275 5.535L14.9525 6.4425L14.15 7.08L13.4825 7.605L13.5875 8.4525ZM9.5 6C7.8425 6 6.5 7.3425 6.5 9C6.5 10.6575 7.8425 12 9.5 12C11.1575 12 12.5 10.6575 12.5 9C12.5 7.3425 11.1575 6 9.5 6ZM9.5 10.5C8.675 10.5 8 9.825 8 9C8 8.175 8.675 7.5 9.5 7.5C10.325 7.5 11 8.175 11 9C11 9.825 10.325 10.5 9.5 10.5Z" fill="black" fill-opacity="0.54"/>
</svg>
