<svg width="18" height="18" viewBox="0 0 18 18" fill="none" xmlns="http://www.w3.org/2000/svg">
<path d="M13.245 4.0575L13.935 4.7475L11.9175 6.765L11.2275 6.075L13.245 4.0575V4.0575ZM13.2525 2.25C13.0575 2.25 12.87 2.325 12.72 2.4675L10.38 4.8075L8.9325 3.375L7.875 4.4325L8.94 5.4975L2.25 12.1875V15.75H5.8125L12.5025 9.06L13.5675 10.125L14.625 9.0675L13.185 7.6275L15.525 5.2875C15.825 4.9875 15.825 4.515 15.5325 4.2225L13.7775 2.4675C13.6275 2.325 13.44 2.25 13.2525 2.25V2.25ZM5.19 14.25L3.75 12.81L9.795 6.765L11.235 8.205L5.19 14.25Z" fill="white"/>
</svg>
