<svg width="60" height="32" viewBox="0 0 60 32" fill="none" xmlns="http://www.w3.org/2000/svg">
<path d="M2.06512 14.2651V15.5223H5.13397V17.1869H2.06512V20.1508H0V12.603H5.35935V14.2651H2.06512ZM7.00777 20.1508V12.603H9.07289V20.1508H7.00777ZM16.9036 20.1508L13.0983 15.5322V20.1483H11.0332V12.603H13.0983L16.9062 17.2192V12.603H18.9713V20.1508H16.9036ZM26.2516 20.1508L25.738 18.839H22.8866L22.3389 20.1508H20.169L23.1749 12.603H25.4654L28.4609 20.1508H26.2516ZM24.3176 14.9459L23.458 17.3459H25.1771L24.3176 14.9459ZM40.2095 14.2651V20.1483H38.1444V14.2651H36.2313V12.603H42.1593V14.2651H40.2095ZM47.5842 20.1508L45.6029 17.2539V20.1508H43.5378V12.603H46.7613C47.5134 12.603 48.1686 12.7396 48.7059 13.2713C49.1592 13.7136 49.3872 14.3347 49.3872 14.9459C49.3872 15.4204 49.2326 15.9521 48.9339 16.3372C48.6115 16.7546 48.1817 16.9483 47.6576 17.0601L50.1525 20.1483H47.5842V20.1508ZM45.996 14.1185H45.6029V15.9869H45.996C46.6407 15.9869 47.2618 15.7483 47.2618 15.0477C47.2618 14.3446 46.6276 14.1185 45.996 14.1185ZM56.7881 20.1508L56.2745 18.839H53.4231L52.8754 20.1508H50.6924L53.7481 12.603H56.0045L59 20.1508H56.7881ZM54.854 14.9459L53.9944 17.3459H55.7136L54.854 14.9459ZM35.0677 19.0353C34.5488 19.9943 33.3066 20.3719 32.2347 20.3719C31.2336 20.3719 30.2299 20.0341 29.4096 19.4974L30.3295 17.9148C30.8484 18.3496 31.4616 18.6924 32.1744 18.6924C32.6802 18.6924 33.1755 18.4862 33.1755 17.9372C33.1755 16.6105 29.7634 17.6167 29.7634 14.9434C29.7634 13.4005 30.8719 12.3719 32.4889 12.3719C33.38 12.3719 34.1636 12.5533 34.9471 12.9409L34.2448 14.5533C33.8464 14.2452 33.3695 14.0192 32.8375 14.0192C32.4286 14.0192 31.9464 14.2353 31.9464 14.6825C31.9464 15.803 35.3691 15.0701 35.3691 17.6763C35.3691 18.1111 35.2852 18.6477 35.0677 19.0353Z" fill="url(#paint0_linear_47195_2574)"/>
<defs>
<linearGradient id="paint0_linear_47195_2574" x1="0.000314485" y1="16.3731" x2="58.995" y2="16.3731" gradientUnits="userSpaceOnUse">
<stop stop-color="#C137A2"/>
<stop offset="1" stop-color="#694ED6"/>
</linearGradient>
</defs>
</svg>
