<svg width="256" height="67" viewBox="0 0 256 67" fill="none" xmlns="http://www.w3.org/2000/svg">
<mask id="mask0_46918_3053" style="mask-type:luminance" maskUnits="userSpaceOnUse" x="0" y="0" width="256" height="67">
<path d="M255.081 0.800781H0V66.1169H255.081V0.800781Z" fill="white"/>
</mask>
<g mask="url(#mask0_46918_3053)">
<path d="M131.124 6.93018L107.09 63.9745H91.1297L67.0955 6.93018H81.1778L99.2038 52.2878L117.135 6.93018H131.124Z" fill="#694ED6"/>
<path d="M135.625 41.1732C135.625 36.5965 136.658 32.5374 138.723 28.9961C140.851 25.4545 143.699 22.7305 147.267 20.8235C150.897 18.9166 154.934 17.9632 159.378 17.9632C163.258 17.9632 166.638 18.6441 169.517 20.0062C172.459 21.3683 174.806 23.0846 176.558 25.155V18.6987H189.796V63.9746H176.558V57.355C174.869 59.4798 172.521 61.2504 169.517 62.6671C166.575 64.029 163.164 64.71 159.284 64.71C154.903 64.71 150.897 63.7292 147.267 61.768C143.699 59.8065 140.851 57.0552 138.723 53.5137C136.658 49.9177 135.625 45.8041 135.625 41.1732ZM176.558 41.3366C176.558 38.558 175.932 36.1878 174.68 34.2266C173.429 32.2107 171.739 30.6851 169.611 29.6499C167.483 28.5601 165.198 28.0153 162.757 28.0153C160.316 28.0153 158.063 28.5331 155.998 29.5682C153.932 30.6034 152.243 32.129 150.928 34.145C149.676 36.1062 149.05 38.4488 149.05 41.1732C149.05 43.8974 149.676 46.2945 150.928 48.3649C152.243 50.3808 153.932 51.9336 155.998 53.0233C158.126 54.1129 160.379 54.6581 162.757 54.6581C165.198 54.6581 167.483 54.1402 169.611 53.105C171.739 52.0156 173.429 50.49 174.68 48.5285C175.932 46.5126 176.558 44.1152 176.558 41.3366ZM179.563 2.51702C179.563 6.43983 178.217 9.51818 175.526 11.752C172.834 13.9858 169.173 15.1027 164.541 15.1027C160.035 15.1027 156.405 13.9858 153.651 11.752C150.96 9.46366 149.614 6.35812 149.614 2.43529V0.800781H156.561C156.561 2.65324 157.156 4.0698 158.345 5.05051C159.534 5.97672 161.599 6.43983 164.541 6.43983C167.483 6.43983 169.549 5.97672 170.737 5.05051C171.927 4.0698 172.521 2.65324 172.521 0.800781H179.563V2.51702Z" fill="#694ED6"/>
<path d="M231.454 18.0452C237.65 18.0452 242.658 19.7612 246.476 23.1938C250.293 26.5719 252.203 31.312 252.203 37.414V63.9747H239.06V38.9668C239.06 35.3708 238.027 32.6195 235.961 30.7127C233.895 28.7511 231.079 27.7703 227.511 27.7703C223.881 27.7703 221.003 28.7511 218.875 30.7127C216.809 32.6195 215.776 35.3708 215.776 38.9668V63.9747H202.631V18.699H215.776V24.338C217.529 22.3766 219.749 20.851 222.441 19.7612C225.195 18.6172 228.199 18.0452 231.454 18.0452Z" fill="#694ED6"/>
<path d="M30.3158 43.9644C29.5646 44.1421 28.8135 44.29 28.0626 44.4083C27.3115 44.5267 26.5285 44.5857 25.7154 44.5857C22.5854 44.5857 19.7389 44.0532 17.1721 42.9882C14.6053 41.9229 12.4159 40.473 10.6002 38.6388C8.78452 36.8043 7.37626 34.6444 6.37542 32.159C5.37457 29.6143 4.87329 26.922 4.87329 24.0816C4.87329 20.8271 5.49859 17.8978 6.75096 15.2941C8.06531 12.6312 9.81722 10.3529 12.0085 8.45933C14.2616 6.56571 16.8904 5.11592 19.8946 4.10995C22.8988 3.04478 26.1529 2.51221 29.6585 2.51221C33.1005 2.51221 36.3243 3.04478 39.3284 4.10995C42.3948 5.11592 45.0236 6.56571 47.2147 8.45933C49.4678 10.3529 51.2199 12.6312 52.4723 15.2941C53.7868 17.8978 54.4441 20.8271 54.4441 24.0816C54.4441 26.3303 54.2241 28.4014 53.7868 30.295C53.3492 32.1292 52.7539 33.8752 52.0028 35.532C51.3137 37.1889 50.4689 38.7867 49.4681 40.3251C48.5293 41.8046 47.5285 43.343 46.4637 44.9408L31.9119 66.4215H14.7311L30.3158 43.9644ZM18.9558 24.6143C18.9558 27.4545 19.9266 29.8215 21.8662 31.7151C23.8697 33.5496 26.4665 34.4668 29.6585 34.4668C32.8508 34.4668 35.4173 33.5496 37.3569 31.7151C39.3606 29.8215 40.3614 27.4545 40.3614 24.6143C40.3614 21.7738 39.3606 19.4362 37.3569 17.6019C35.4173 15.7083 32.8508 14.7615 29.6585 14.7615C26.4665 14.7615 23.8697 15.7083 21.8662 17.6019C19.9266 19.4362 18.9558 21.7738 18.9558 24.6143Z" fill="#B4A6EA"/>
</g>
</svg>
