<svg width="638" height="164" viewBox="0 0 638 164" fill="none" xmlns="http://www.w3.org/2000/svg">
<mask id="mask0_46918_3013" style="mask-type:luminance" maskUnits="userSpaceOnUse" x="0" y="0" width="638" height="164">
<path d="M637.7 0H0V163.3H637.7V0Z" fill="white"/>
</mask>
<g mask="url(#mask0_46918_3013)">
<path d="M327.809 15.3245L267.724 157.944H227.824L167.738 15.3245H202.944L248.009 128.725L292.838 15.3245H327.809Z" fill="#694ED6"/>
<path d="M339.062 100.937C339.062 89.4947 341.644 79.3463 346.807 70.4924C352.127 61.638 359.247 54.8275 368.166 50.0599C377.241 45.2922 387.333 42.9086 398.443 42.9086C408.144 42.9086 416.594 44.6109 423.791 48.0164C431.145 51.4219 437.014 55.7129 441.394 60.8892V44.7474H474.488V157.944H441.394V141.394C437.17 146.706 431.302 151.133 423.791 154.675C416.437 158.08 407.909 159.783 398.208 159.783C387.255 159.783 377.241 157.331 368.166 152.427C359.247 147.523 352.127 140.644 346.807 131.79C341.644 122.8 339.062 112.515 339.062 100.937ZM441.394 101.346C441.394 94.3987 439.83 88.4729 436.7 83.5696C433.57 78.5295 429.346 74.7153 424.025 72.1272C418.706 69.4025 412.994 68.0404 406.892 68.0404C400.79 68.0404 395.156 69.3349 389.993 71.9229C384.829 74.5111 380.605 78.3252 377.319 83.3654C374.19 88.2687 372.625 94.1257 372.625 100.937C372.625 107.748 374.19 113.741 377.319 118.917C380.605 123.958 384.829 127.84 389.993 130.564C395.313 133.288 400.946 134.651 406.892 134.651C412.994 134.651 418.706 133.356 424.025 130.768C429.346 128.045 433.57 124.231 436.7 119.327C439.83 114.286 441.394 108.292 441.394 101.346ZM448.905 4.29086C448.905 14.0985 445.541 21.7948 438.812 27.3797C432.084 32.9645 422.931 35.757 411.352 35.757C400.086 35.757 391.011 32.9645 384.125 27.3797C377.398 21.6585 374.033 13.8942 374.033 4.08652V0H391.401C391.401 4.63141 392.888 8.17303 395.861 10.625C398.834 12.9406 403.997 14.0985 411.352 14.0985C418.706 14.0985 423.87 12.9406 426.842 10.625C429.815 8.17303 431.302 4.63141 431.302 0H448.905V4.29086Z" fill="#694ED6"/>
<path d="M578.634 43.1135C594.123 43.1135 606.643 47.404 616.189 55.9858C625.731 64.4315 630.505 76.2826 630.505 91.5385V157.944H597.647V95.4207C597.647 86.4303 595.065 79.5515 589.9 74.7843C584.736 69.88 577.696 67.4279 568.776 67.4279C559.7 67.4279 552.505 69.88 547.185 74.7843C542.021 79.5515 539.439 86.4303 539.439 95.4207V157.944H506.576V44.7482H539.439V58.8465C543.82 53.9428 549.372 50.1286 556.101 47.404C562.985 44.5437 570.496 43.1135 578.634 43.1135Z" fill="#694ED6"/>
<path d="M75.7891 107.915C73.9113 108.36 72.0335 108.729 70.1562 109.025C68.2784 109.321 66.3211 109.469 64.2882 109.469C56.4633 109.469 49.3469 108.138 42.93 105.475C36.5131 102.811 31.0395 99.1865 26.5003 94.6006C21.9612 90.014 18.4405 84.6142 15.9384 78.4003C13.4363 72.0381 12.1831 65.307 12.1831 58.2054C12.1831 50.0687 13.7463 42.745 16.8773 36.2354C20.1631 29.5777 24.5429 23.8818 30.021 19.1475C35.6539 14.4132 42.2257 10.7885 49.7363 8.2734C57.2469 5.61033 65.382 4.27881 74.1459 4.27881C82.7509 4.27881 90.8104 5.61033 98.3207 8.2734C105.987 10.7885 112.558 14.4132 118.036 19.1475C123.669 23.8818 128.049 29.5777 131.18 36.2354C134.466 42.745 136.11 50.0687 136.11 58.2054C136.11 63.8276 135.56 69.0057 134.466 73.7399C133.373 78.3258 131.884 82.691 130.007 86.8333C128.284 90.9756 126.172 94.9704 123.67 98.8168C121.323 102.516 118.821 106.362 116.159 110.357L79.7794 164.062H36.8275L75.7891 107.915ZM47.3892 59.5372C47.3892 66.6384 49.8163 72.5562 54.6651 77.2904C59.674 81.877 66.166 84.1699 74.1459 84.1699C82.1266 84.1699 88.5429 81.877 93.392 77.2904C98.4011 72.5562 100.903 66.6384 100.903 59.5372C100.903 52.4356 98.4011 46.5913 93.392 42.0053C88.5429 37.2709 82.1266 34.9038 74.1459 34.9038C66.166 34.9038 59.674 37.2709 54.6651 42.0053C49.8163 46.5913 47.3892 52.4356 47.3892 59.5372Z" fill="#B4A6EA"/>
</g>
</svg>
